<svg xmlns="http://www.w3.org/2000/svg" width="148.952" height="49.06" viewBox="0 0 148.952 49.06">
  <g id="collabo_logo" transform="translate(-139.5 -99.485)">
    <path id="Path_3979" data-name="Path 3979" d="M9.528.336a8.4,8.4,0,0,1-6.264-2.52A8.531,8.531,0,0,1,.792-8.4a8.52,8.52,0,0,1,2.472-6.228,8.424,8.424,0,0,1,6.264-2.508,8.563,8.563,0,0,1,4.212,1.068,7.819,7.819,0,0,1,3.012,2.892L13.9-11.52a4.434,4.434,0,0,0-1.776-1.764,5.272,5.272,0,0,0-2.592-.636A5.27,5.27,0,0,0,5.58-12.384,5.461,5.461,0,0,0,4.08-8.4a5.43,5.43,0,0,0,1.5,3.96A5.27,5.27,0,0,0,9.528-2.9a5.341,5.341,0,0,0,2.6-.636A4.3,4.3,0,0,0,13.9-5.28l2.856,1.656a7.842,7.842,0,0,1-3,2.892A8.543,8.543,0,0,1,9.528.336ZM28.944-1.488A6.18,6.18,0,0,1,24.432.336a6.119,6.119,0,0,1-4.5-1.836A6.119,6.119,0,0,1,18.1-6a6.119,6.119,0,0,1,1.836-4.5,6.119,6.119,0,0,1,4.5-1.836A6.159,6.159,0,0,1,28.944-10.5,6.1,6.1,0,0,1,30.792-6,6.138,6.138,0,0,1,28.944-1.488ZM22.1-3.624a3.16,3.16,0,0,0,2.328.936,3.16,3.16,0,0,0,2.328-.936A3.219,3.219,0,0,0,27.7-6a3.219,3.219,0,0,0-.936-2.376,3.16,3.16,0,0,0-2.328-.936,3.121,3.121,0,0,0-2.316.936A3.242,3.242,0,0,0,21.192-6,3.265,3.265,0,0,0,22.1-3.624ZM32.976,0V-17.52h3.1V0ZM38.9,0V-17.52H42V0ZM53.952-12h3.1V0h-3.1V-1.416A4.712,4.712,0,0,1,50.04.336,5.437,5.437,0,0,1,45.924-1.5,6.345,6.345,0,0,1,44.208-6a6.345,6.345,0,0,1,1.716-4.5,5.437,5.437,0,0,1,4.116-1.836,4.712,4.712,0,0,1,3.912,1.752ZM48.24-3.552a3.219,3.219,0,0,0,2.376.936A3.238,3.238,0,0,0,53-3.564,3.3,3.3,0,0,0,53.952-6,3.3,3.3,0,0,0,53-8.436a3.238,3.238,0,0,0-2.388-.948,3.2,3.2,0,0,0-2.376.948A3.32,3.32,0,0,0,47.3-6,3.361,3.361,0,0,0,48.24-3.552Zm18.6-8.784A5.463,5.463,0,0,1,70.98-10.5,6.345,6.345,0,0,1,72.7-6,6.345,6.345,0,0,1,70.98-1.5,5.463,5.463,0,0,1,66.84.336a4.644,4.644,0,0,1-3.888-1.752V0h-3.1V-16.8h3.1v6.216A4.644,4.644,0,0,1,66.84-12.336ZM63.888-3.552a3.219,3.219,0,0,0,2.376.936,3.238,3.238,0,0,0,2.388-.948A3.3,3.3,0,0,0,69.6-6a3.3,3.3,0,0,0-.948-2.436,3.238,3.238,0,0,0-2.388-.948,3.2,3.2,0,0,0-2.376.948A3.32,3.32,0,0,0,62.952-6,3.361,3.361,0,0,0,63.888-3.552ZM85.1-1.488A6.18,6.18,0,0,1,80.592.336a6.119,6.119,0,0,1-4.5-1.836A6.119,6.119,0,0,1,74.256-6a6.119,6.119,0,0,1,1.836-4.5,6.119,6.119,0,0,1,4.5-1.836A6.159,6.159,0,0,1,85.1-10.5,6.1,6.1,0,0,1,86.952-6,6.138,6.138,0,0,1,85.1-1.488Zm-6.84-2.136a3.16,3.16,0,0,0,2.328.936,3.16,3.16,0,0,0,2.328-.936A3.219,3.219,0,0,0,83.856-6a3.219,3.219,0,0,0-.936-2.376,3.16,3.16,0,0,0-2.328-.936,3.121,3.121,0,0,0-2.316.936A3.242,3.242,0,0,0,77.352-6,3.265,3.265,0,0,0,78.264-3.624Z" transform="translate(201 130)" fill="#364c71" stroke="rgba(0,0,0,0)" stroke-width="1"/>
    <g id="Artboard_3_copy_3" data-name="Artboard 3 copy 3" transform="translate(140 100)">
      <path id="Path_246" data-name="Path 246" d="M215.42,194.012v-21.6a3.815,3.815,0,0,0-1.906-3.3l-19.09-8.165a3.823,3.823,0,0,0-3.008,0l-19.09,8.165a3.815,3.815,0,0,0-1.906,3.3v21.6a3.816,3.816,0,0,0,1.905,3.3l18.689,10.806a3.813,3.813,0,0,0,3.812,0l18.688-10.8A3.817,3.817,0,0,0,215.42,194.012Zm-41.3-19.532,15.1,8.734-15.1,8.726Zm16.954,29.4-15.1-8.734,15.1-8.734Zm-3.688-35.5a.527.527,0,0,1,.474-.941l9.8,4.93a.527.527,0,0,1-.236,1,.515.515,0,0,1-.236-.057Zm7.386,35.5V186.416l15.1,8.734Zm16.954-11.935-15.1-8.734,15.1-8.734Z" transform="translate(-170.42 -160.632)" fill="#364c71" stroke="rgba(0,0,0,0)" stroke-miterlimit="10" stroke-width="1"/>
    </g>
  </g>
</svg>
